<svg xmlns="http://www.w3.org/2000/svg" width="445" height="495" viewBox="0 0 445 495" fill="none"><circle cx="200" cy="246.858" r="200" fill="#BFD9DE"></circle><path fill-rule="evenodd" clip-rule="evenodd" d="M311.066 239.461C311.066 239.461 309.786 219.7 281.983 216.729C254.181 213.76 225.743 226.278 236.353 273.175C236.353 273.175 219.586 330.894 216.828 346.172C216.828 346.172 213.221 353.599 200.274 359.328C187.33 365.059 167.38 377.791 153.16 396.889C138.94 415.987 139.151 420.229 125.782 421.714C112.411 423.201 111.773 449.727 121.537 450.364C131.298 451 137.666 451.849 138.726 449.304C139.789 446.758 162.71 415.349 231.897 389.038C231.897 389.038 246.54 387.551 254.181 375.031C261.822 362.513 289.624 303.518 289.624 303.518C289.624 303.518 324.006 313.28 336.95 315.403C336.95 315.403 347.686 319.521 345.777 326.102C343.868 332.679 341.321 365.996 347.897 378.938C354.478 391.883 368.997 420.865 365.603 449.513C362.207 478.163 392.343 454.82 394.255 449.304C396.164 443.784 385.129 445.909 385.129 418.32C385.129 390.733 387.249 326.438 388.312 316.252C389.372 306.065 390.645 292.698 377.701 281.664C364.752 270.628 311.066 239.461 311.066 239.461Z" fill="#DB8C5C"></path><path fill-rule="evenodd" clip-rule="evenodd" d="M311.062 239.461C311.062 239.461 309.781 219.7 281.979 216.729C254.177 213.76 225.739 226.278 236.349 273.175C236.349 273.175 219.582 330.894 216.824 346.172C216.824 346.172 213.217 353.599 200.27 359.328C187.326 365.059 167.374 377.791 153.156 396.889C148.017 403.79 141.388 409.769 138.698 413.362C138.062 414.211 152.516 437.935 153.54 437.273C167.627 428.159 194.68 405.886 235.076 390.522C235.076 390.522 246.536 387.551 254.177 375.031C261.818 362.513 289.62 303.518 289.62 303.518C289.62 303.518 324.797 315.986 337.743 318.109C337.743 318.109 344.905 322.351 342.996 328.931C341.085 335.509 338.167 365.324 344.746 378.269C349.618 387.852 355.871 411.298 358.953 431.82C359.103 432.826 386.569 431.086 386.569 427.207C386.569 399.62 387.245 326.438 388.307 316.252C389.367 306.065 390.641 292.698 377.696 281.664C364.748 270.628 311.062 239.461 311.062 239.461Z" fill="#C0572C"></path><path fill-rule="evenodd" clip-rule="evenodd" d="M269.461 251.107C277.093 253.478 284.586 256.259 292.023 259.174C299.475 262.06 306.795 265.278 314.05 268.64C321.29 272.033 328.43 275.665 335.326 279.743C342.195 283.821 349.029 288.16 354.777 293.759L349.923 290.267L344.872 287.093C341.447 285.074 338.023 283.062 334.481 281.25C327.442 277.555 320.326 274.005 313.098 270.67C305.899 267.272 298.633 264.016 291.36 260.759L269.461 251.107Z" fill="#A2370B"></path><path fill-rule="evenodd" clip-rule="evenodd" d="M344.802 310.098C348.506 308.618 352.133 307.084 355.651 305.317C357.425 304.466 359.128 303.489 360.839 302.512C362.544 301.526 364.159 300.401 365.812 299.276C363.124 302.243 359.725 304.531 356.152 306.321C354.35 307.201 352.509 307.996 350.608 308.623C348.71 309.254 346.781 309.8 344.802 310.098Z" fill="#A2370B"></path><path fill-rule="evenodd" clip-rule="evenodd" d="M342.677 313.281C347.574 311.796 352.43 310.318 357.21 308.609C361.99 306.902 366.668 304.991 371.118 302.46C369.15 304.104 366.935 305.44 364.662 306.633C362.378 307.819 359.993 308.78 357.587 309.667C355.166 310.516 352.711 311.264 350.22 311.861C347.731 312.465 345.225 312.989 342.677 313.281Z" fill="#A2370B"></path><path fill-rule="evenodd" clip-rule="evenodd" d="M345.863 314.555C349.048 314.622 352.125 314.139 355.152 313.423C356.666 313.052 358.16 312.608 359.649 312.12C361.143 311.637 362.601 311.047 364.114 310.521C363.465 310.988 362.787 311.411 362.106 311.835C361.397 312.197 360.7 312.601 359.966 312.922C358.515 313.614 356.976 314.108 355.417 314.512C353.845 314.869 352.246 315.125 350.631 315.143C349.023 315.166 347.392 315.062 345.863 314.555Z" fill="#A2370B"></path><path fill-rule="evenodd" clip-rule="evenodd" d="M365.177 320.496C365.145 325.118 365.055 329.728 365.089 334.346C365.058 338.956 365.067 343.567 365.157 348.173C365.35 357.387 365.556 366.573 366.832 375.677C367.787 384.86 368.836 394.032 369.7 403.226L370.951 417.02C371.288 421.626 371.699 426.225 371.967 430.841C371.194 426.282 370.563 421.707 369.858 417.143L367.984 403.422C366.765 394.272 365.734 385.101 364.604 375.938C363.503 366.723 363.259 357.408 363.438 348.169C363.649 338.918 364.164 329.686 365.177 320.496Z" fill="#A2370B"></path><path fill-rule="evenodd" clip-rule="evenodd" d="M244.205 278.905C247.821 281.299 251.552 283.451 255.258 285.627C258.989 287.76 262.744 289.842 266.545 291.846C270.341 293.855 274.175 295.796 278.027 297.721C281.883 299.634 285.758 301.534 289.621 303.519C285.443 302.347 281.315 300.979 277.306 299.319C273.272 297.705 269.352 295.827 265.496 293.829C261.671 291.762 257.913 289.568 254.328 287.102C250.739 284.657 247.28 281.98 244.205 278.905Z" fill="#A2370B"></path><path fill-rule="evenodd" clip-rule="evenodd" d="M260.121 299.488C258.284 304.925 256.22 310.261 254.12 315.583C252.046 320.915 249.809 326.177 247.572 331.441C245.286 336.682 242.995 341.92 240.544 347.092L236.858 354.846C235.556 357.4 234.322 359.983 232.957 362.511C233.853 359.787 234.884 357.119 235.843 354.42L238.952 346.418C241.029 341.086 243.266 335.822 245.506 330.56C247.797 325.319 250.088 320.077 252.541 314.905C254.969 309.724 257.433 304.556 260.121 299.488Z" fill="#A2370B"></path><path fill-rule="evenodd" clip-rule="evenodd" d="M215.764 355.297L221.735 364.673C222.732 366.223 223.79 367.723 224.879 369.198C225.986 370.658 227.168 372.068 228.711 373.122C226.928 372.475 225.479 371.125 224.217 369.753C222.938 368.367 221.829 366.847 220.796 365.286C219.789 363.707 218.835 362.099 218.004 360.426C217.166 358.76 216.382 357.064 215.764 355.297Z" fill="#A2370B"></path><path fill-rule="evenodd" clip-rule="evenodd" d="M213.43 355.085C214.526 358.995 215.438 362.911 216.462 366.799C216.945 368.75 217.507 370.673 218.066 372.597C218.652 374.513 219.281 376.415 220.219 378.214C218.883 376.662 218.014 374.767 217.253 372.887C216.487 370.994 215.89 369.044 215.378 367.082C214.883 365.112 214.437 363.131 214.127 361.126C213.803 359.127 213.529 357.115 213.43 355.085Z" fill="#A2370B"></path><path fill-rule="evenodd" clip-rule="evenodd" d="M150.61 418.319L158.33 412.664L166.099 407.11C171.251 403.371 176.46 399.722 181.521 395.902C186.559 392.086 191.651 388.14 196.922 384.567C202.178 380.945 207.497 377.416 213.007 374.182L205.5 380.118L197.944 385.962L182.866 397.696C177.723 401.509 172.462 405.125 167.062 408.534C161.676 411.957 156.23 415.278 150.61 418.319Z" fill="#A2370B"></path><path fill-rule="evenodd" clip-rule="evenodd" d="M125.356 421.822C125.356 421.822 129.812 420.443 127.584 429.565C125.356 438.693 127.692 441.134 132.467 441.77C137.242 442.405 138.408 444.103 138.408 444.103C138.408 444.103 110.395 452.484 125.356 421.822Z" fill="#E3E3E3"></path><path fill-rule="evenodd" clip-rule="evenodd" d="M100.418 424.687C100.418 424.687 104.344 440.921 106.891 445.377C109.438 449.832 110.923 454.182 111.134 465.854C111.348 477.523 115.168 490.681 129.175 491.954L130.873 488.983C130.873 488.983 119.943 459.593 121.109 444.42C122.277 429.248 108.376 424.9 108.376 424.9L100.418 424.687Z" fill="#E3E3E3"></path><path fill-rule="evenodd" clip-rule="evenodd" d="M100.418 424.687C101.44 427.784 102.372 430.898 103.441 433.968C104.448 437.047 105.472 440.142 106.752 443.057C107.082 443.793 107.415 444.442 107.821 445.125C108.252 445.835 108.646 446.576 109.016 447.333C109.762 448.849 110.339 450.459 110.775 452.083C111.624 455.348 111.927 458.663 112.125 461.944C112.266 465.261 112.21 468.443 112.637 471.592C113.005 474.743 113.726 477.851 114.926 480.755C116.139 483.645 117.956 486.297 120.431 488.247C122.852 490.29 125.968 491.411 129.175 491.954C125.918 491.918 122.594 491.004 119.784 489.136C116.992 487.238 114.845 484.478 113.353 481.471C111.826 478.455 111.049 475.156 110.528 471.879C110.018 468.578 110.058 465.232 109.883 462.058C109.733 458.851 109.441 455.653 108.717 452.601C108.36 451.074 107.884 449.59 107.237 448.164C106.921 447.447 106.561 446.747 106.191 446.044C105.806 445.303 105.447 444.478 105.162 443.71C102.943 437.463 101.577 431.11 100.418 424.687Z" fill="#AF741B"></path><path fill-rule="evenodd" clip-rule="evenodd" d="M114.531 455.88C114.531 455.88 114.637 473.175 117.714 478.798C120.793 484.422 128.008 492.273 132.04 489.937C136.074 487.604 134.162 483.148 132.996 480.388C131.828 477.633 132.677 464.158 139.045 453.12C145.411 442.086 137.558 442.513 136.498 442.513C135.436 442.513 125.993 445.801 123.551 437.738C121.11 429.673 129.919 425.218 127.689 422.035C125.461 418.851 117.292 420.23 108.377 424.899C108.377 424.899 115.38 441.983 114.531 455.88Z" fill="#D9B543"></path><path fill-rule="evenodd" clip-rule="evenodd" d="M126.491 455.267C126.696 455.388 126.965 455.5 127.309 455.579C128.398 455.822 130.309 455.676 133.432 453.897C131.79 453.553 129.144 453.457 126.491 455.267ZM128.194 457.353C127.713 457.353 127.259 457.302 126.833 457.196C125.161 456.787 124.526 455.718 124.461 455.599C124.263 455.244 124.346 454.8 124.658 454.541C129.948 450.162 135.565 452.776 135.801 452.891C136.075 453.023 136.255 453.291 136.275 453.594C136.298 453.897 136.154 454.187 135.9 454.353C132.877 456.347 130.292 457.353 128.194 457.353Z" fill="#E3E3E3"></path><path fill-rule="evenodd" clip-rule="evenodd" d="M137.122 455.922C137.515 459.61 138.533 463.839 140.04 464.007C140.462 464.059 140.561 463.904 140.64 463.7C141.123 462.446 139.912 458.705 137.122 455.922ZM140.179 465.701C140.074 465.701 139.966 465.694 139.853 465.683C135.992 465.251 135.37 455.88 135.287 454.005C135.271 453.683 135.442 453.38 135.727 453.227C136.01 453.07 136.359 453.093 136.621 453.286C140.884 456.363 143.164 461.831 142.212 464.304C141.866 465.204 141.134 465.701 140.179 465.701Z" fill="#E3E3E3"></path><path fill-rule="evenodd" clip-rule="evenodd" d="M138.569 471.295C138.553 471.295 138.537 471.295 138.522 471.293C138.212 471.266 137.983 470.996 138.007 470.686C138.165 468.809 137.444 466.222 136.527 462.95C136.26 461.991 135.975 460.973 135.692 459.895C135.148 457.84 134.953 456.459 134.928 455.527C134.591 455.734 134.171 455.954 133.645 456.183C131.736 457.007 123.763 461.78 123.682 461.827C123.417 461.979 123.071 461.899 122.911 461.634C122.752 461.366 122.839 461.023 123.104 460.861C123.435 460.666 131.224 456.003 133.198 455.152C134.609 454.541 135.072 454.043 135.18 453.906C135.218 453.836 135.256 453.785 135.294 453.746C135.481 453.544 135.786 453.511 136.017 453.661C136.244 453.818 136.327 454.115 136.213 454.364C136.199 454.395 136.17 454.452 136.112 454.53C136.073 454.694 135.788 455.86 136.777 459.61C137.06 460.681 137.343 461.694 137.61 462.646C138.555 466.029 139.301 468.701 139.128 470.781C139.103 471.073 138.856 471.295 138.569 471.295Z" fill="#E3E3E3"></path><path fill-rule="evenodd" clip-rule="evenodd" d="M125.954 461.95C127.428 461.971 128.897 462.123 130.359 462.451C131.091 462.59 131.875 462.703 132.533 463.147C133.16 463.588 133.829 464.214 133.964 465.11C133.973 465.164 133.937 465.214 133.883 465.223C133.869 465.225 133.847 465.22 133.833 465.216C133.043 464.989 132.432 464.861 131.776 464.654C131.136 464.461 130.574 464.032 129.932 463.727C128.647 463.145 127.297 462.613 125.927 462.117C125.882 462.101 125.858 462.054 125.871 462.009C125.885 461.975 125.918 461.95 125.954 461.95Z" fill="#E3E3E3"></path><path fill-rule="evenodd" clip-rule="evenodd" d="M125.589 464.394C127.031 464.542 128.459 464.762 129.875 465.07C130.589 465.207 131.339 465.267 131.988 465.638C132.608 466.02 133.318 466.46 133.641 467.338C133.657 467.38 133.635 467.43 133.592 467.446C133.581 467.448 133.567 467.45 133.556 467.45L133.515 467.448C132.743 467.401 132.067 467.369 131.377 467.208C130.697 467.059 130.097 466.657 129.455 466.35C128.161 465.766 126.851 465.173 125.544 464.555C125.501 464.535 125.483 464.486 125.501 464.441C125.517 464.409 125.553 464.389 125.589 464.394Z" fill="#E3E3E3"></path><path fill-rule="evenodd" clip-rule="evenodd" d="M122.658 466.671C124.529 466.698 126.394 466.837 128.256 467.124C129.186 467.261 130.158 467.315 131.043 467.746C131.874 468.178 132.887 468.746 133.222 469.835C133.235 469.882 133.211 469.929 133.166 469.943C133.148 469.95 133.13 469.947 133.112 469.941L133.083 469.932C132.186 469.613 131.358 469.55 130.486 469.336C129.628 469.148 128.804 468.741 127.941 468.436C126.205 467.87 124.426 467.344 122.636 466.837C122.591 466.823 122.564 466.778 122.575 466.734C122.587 466.695 122.62 466.671 122.658 466.671Z" fill="#E3E3E3"></path><path fill-rule="evenodd" clip-rule="evenodd" d="M362.499 449.7C362.499 449.7 362.164 445.049 370.549 449.28C378.934 453.515 381.838 451.795 383.541 447.29C385.241 442.783 387.159 442.028 387.159 442.028C387.159 442.028 388.985 471.21 362.499 449.7Z" fill="#E3E3E3"></path><path fill-rule="evenodd" clip-rule="evenodd" d="M359.647 474.635C359.647 474.635 376.351 474.484 381.268 473.009C386.184 471.538 390.76 471.075 402.177 473.51C413.596 475.944 427.277 475.201 431.686 461.847L429.175 459.521C429.175 459.521 398.071 463.516 383.554 458.946C369.038 454.376 361.655 466.93 361.655 466.93L359.647 474.635Z" fill="#E3E3E3"></path><path fill-rule="evenodd" clip-rule="evenodd" d="M359.647 474.634C362.895 474.338 366.14 474.134 369.372 473.788C372.6 473.505 375.848 473.206 378.974 472.622C379.767 472.465 380.477 472.287 381.232 472.047C382.022 471.787 382.833 471.573 383.655 471.382C385.3 470.998 386.998 470.803 388.68 470.747C392.054 470.657 395.351 471.113 398.592 471.661C401.858 472.272 404.944 473.049 408.107 473.345C411.26 473.7 414.452 473.7 417.551 473.188C420.64 472.663 423.636 471.492 426.093 469.523C428.634 467.627 430.433 464.847 431.686 461.847C430.913 465.011 429.272 468.038 426.814 470.354C424.335 472.642 421.161 474.111 417.895 474.881C414.611 475.688 411.22 475.699 407.909 475.463C404.578 475.214 401.328 474.416 398.197 473.869C395.036 473.289 391.856 472.851 388.718 472.865C387.15 472.869 385.596 472.997 384.062 473.303C383.292 473.451 382.528 473.642 381.757 473.842C380.949 474.048 380.068 474.214 379.253 474.315C372.665 475.066 366.167 474.958 359.647 474.634Z" fill="#AF741B"></path><path fill-rule="evenodd" clip-rule="evenodd" d="M393.231 467.946C393.231 467.946 410.103 471.755 416.278 470.033C422.452 468.306 431.733 463.055 430.372 458.599C429.011 454.144 424.238 454.995 421.284 455.509C418.333 456.021 405.398 452.147 396.09 443.449C386.78 434.751 385.416 442.495 385.178 443.528C384.938 444.563 386.005 454.505 377.598 455.058C369.188 455.61 366.839 446.023 363.236 447.474C359.631 448.922 359.123 457.194 361.655 466.931C361.655 466.931 379.882 463.974 393.231 467.946Z" fill="#D9B543"></path><path fill-rule="evenodd" clip-rule="evenodd" d="M395.575 449.089C394.872 450.609 394.176 453.165 395.339 456.159C395.503 455.986 395.676 455.752 395.827 455.433C396.307 454.427 396.601 452.534 395.575 449.089ZM394.971 458.245C394.659 458.245 394.362 458.07 394.219 457.78C391.149 451.638 394.966 446.76 395.133 446.556C395.324 446.32 395.625 446.212 395.923 446.25C396.224 446.3 396.473 446.506 396.579 446.789C398.126 450.96 398.367 454.149 397.295 456.264C396.518 457.798 395.335 458.175 395.202 458.211C395.126 458.234 395.047 458.245 394.971 458.245Z" fill="#E3E3E3"></path><path fill-rule="evenodd" clip-rule="evenodd" d="M398.383 445.956C402.067 446.409 406.415 446.376 406.921 444.943C407.062 444.539 406.936 444.413 406.757 444.292C405.643 443.537 401.725 443.867 398.383 445.956ZM402.206 447.912C399.596 447.912 396.991 447.476 396.101 447.312C395.784 447.254 395.528 447.02 395.443 446.706C395.358 446.394 395.459 446.063 395.701 445.85C399.666 442.394 405.506 441.412 407.702 442.897C408.587 443.497 408.881 444.447 408.509 445.504C407.837 447.406 405.02 447.912 402.206 447.912Z" fill="#E3E3E3"></path><path fill-rule="evenodd" clip-rule="evenodd" d="M400.557 461.115C400.319 461.115 400.099 460.964 400.023 460.724C399.904 460.358 397.128 451.718 396.743 449.603C396.469 448.091 396.085 447.528 395.975 447.391C395.917 447.337 395.877 447.287 395.847 447.245C395.692 447.016 395.728 446.71 395.93 446.522C396.13 446.331 396.44 446.317 396.658 446.488C396.685 446.508 396.732 446.553 396.797 446.625C396.95 446.701 398.024 447.243 401.896 447.126C403.001 447.094 404.048 447.047 405.034 447.005C408.549 446.847 411.323 446.726 413.311 447.364C413.605 447.46 413.767 447.777 413.672 448.069C413.578 448.365 413.261 448.527 412.965 448.435C411.168 447.856 408.488 447.977 405.083 448.125C404.093 448.168 403.039 448.217 401.927 448.249C399.803 448.314 398.412 448.188 397.503 448.004C397.626 448.377 397.745 448.837 397.849 449.401C398.219 451.447 401.063 460.293 401.092 460.383C401.186 460.677 401.025 460.991 400.73 461.088C400.672 461.106 400.614 461.115 400.557 461.115Z" fill="#E3E3E3"></path><path fill-rule="evenodd" clip-rule="evenodd" d="M401.728 458.195C402.08 456.765 402.563 455.37 403.21 454.02C403.513 453.34 403.798 452.601 404.382 452.062C404.95 451.55 405.712 451.038 406.619 451.11C406.673 451.114 406.711 451.159 406.706 451.215C406.706 451.226 406.697 451.249 406.691 451.262C406.289 451.977 406.028 452.545 405.678 453.138C405.346 453.719 404.8 454.166 404.357 454.723C403.502 455.844 402.675 457.036 401.882 458.26C401.858 458.301 401.806 458.314 401.766 458.289C401.734 458.269 401.721 458.231 401.728 458.195Z" fill="#E3E3E3"></path><path fill-rule="evenodd" clip-rule="evenodd" d="M404.025 459.102C404.497 457.732 405.034 456.389 405.656 455.08C405.95 454.418 406.177 453.701 406.687 453.153C407.199 452.634 407.787 452.042 408.714 451.925C408.759 451.92 408.802 451.952 408.809 451.999C408.811 452.012 408.809 452.024 408.807 452.035L408.795 452.073C408.573 452.814 408.389 453.465 408.077 454.099C407.78 454.73 407.25 455.222 406.806 455.781C405.945 456.908 405.07 458.049 404.173 459.181C404.144 459.219 404.09 459.226 404.054 459.197C404.025 459.174 404.014 459.136 404.025 459.102Z" fill="#E3E3E3"></path><path fill-rule="evenodd" clip-rule="evenodd" d="M405.58 462.469C406.031 460.655 406.588 458.872 407.289 457.122C407.632 456.246 407.904 455.312 408.526 454.549C409.135 453.837 409.916 452.977 411.055 452.898C411.1 452.896 411.142 452.932 411.145 452.977C411.147 452.997 411.14 453.015 411.131 453.03L411.116 453.057C410.601 453.857 410.354 454.652 409.945 455.451C409.568 456.244 408.989 456.954 408.495 457.726C407.551 459.289 406.637 460.904 405.737 462.53C405.717 462.573 405.665 462.589 405.622 462.566C405.589 462.548 405.573 462.508 405.58 462.469Z" fill="#E3E3E3"></path><path fill-rule="evenodd" clip-rule="evenodd" d="M265.916 245.589C269.471 244.526 273.119 243.785 276.782 243.181C280.45 242.579 284.152 242.227 287.86 241.955C291.571 241.755 295.297 241.706 299.008 241.899C302.723 242.06 306.42 242.552 310.059 243.255C306.355 243.015 302.676 242.741 298.983 242.761C295.295 242.748 291.607 242.79 287.928 243.073C284.244 243.251 280.569 243.617 276.901 244.034C273.231 244.457 269.572 244.98 265.916 245.589Z" fill="#A2370B"></path><path fill-rule="evenodd" clip-rule="evenodd" d="M259.972 253.017C264.113 250.866 268.57 249.357 273.087 248.162C277.612 246.983 282.239 246.183 286.9 245.759C291.565 245.415 296.26 245.26 300.923 245.678C303.259 245.806 305.57 246.174 307.881 246.493C310.186 246.859 312.459 247.421 314.727 247.921C310.109 247.29 305.509 246.657 300.871 246.54C296.244 246.302 291.606 246.448 287.001 246.875C282.383 247.203 277.812 248.011 273.289 248.997C268.77 250.008 264.298 251.29 259.972 253.017Z" fill="#A2370B"></path><path fill-rule="evenodd" clip-rule="evenodd" d="M342.104 41.8226C342.104 41.8226 340.242 44.1268 341.624 46.3568C343.003 48.5847 344.593 52.5103 345.974 54.6326C347.354 56.7526 347.989 59.1938 341.091 61.7405C341.091 61.7405 340.88 63.5439 342.048 64.1817C343.214 64.8173 340.88 67.5773 340.88 67.5773C340.88 67.5773 342.235 68.2556 341.651 69.475C341.069 70.6922 339.795 73.504 341.226 74.6201C342.659 75.7341 341.174 79.2352 336.983 79.2352C332.792 79.2352 327.404 78.7165 327.404 78.7165C327.404 78.7165 324.326 83.2799 323.902 85.2944C323.477 87.3111 322.309 90.28 320.719 91.9801C319.127 93.6779 324.432 98.8747 324.432 98.8747C324.432 98.8747 331.992 113.158 316.71 112.203C301.432 111.247 279.624 91.9913 284.559 88.8091C284.559 88.8091 296.497 85.1394 297.072 76.5021C297.649 67.8693 293.618 65.756 288.627 59.616C283.636 53.4738 277.302 36.5877 288.818 22.5784C300.336 8.56918 325.153 12.0614 332.635 19.861C338.349 25.8168 340.896 36.0329 342.104 37.8453C343.059 39.2759 342.104 41.8226 342.104 41.8226Z" fill="#DB8C5C"></path><path fill-rule="evenodd" clip-rule="evenodd" d="M302.9 50.194C302.9 50.194 302.512 49.7449 302.525 50.4635C302.541 51.1822 302.361 51.5707 302.152 51.5123C301.941 51.4539 300.953 49.7292 302.435 48.9229C303.92 48.1122 304.726 49.7134 305.79 51.7077C306.855 53.6997 306.451 56.5294 305.415 56.635C304.382 56.7405 304.681 56.0219 304.787 54.5823C304.892 53.145 303.439 50.495 302.9 50.194Z" fill="black"></path><path fill-rule="evenodd" clip-rule="evenodd" d="M326.622 39.3753C326.622 39.3753 327.298 38.9755 328.929 38.9373C330.562 38.8969 337.206 39.4539 337.327 39.2158C337.446 38.9755 337.206 37.664 337.206 37.664C337.206 37.664 336.092 37.5045 336.132 37.3451C336.173 37.1856 337.446 36.5096 337.446 36.3502C337.446 36.1907 328.85 34.0842 326.622 39.3753Z" fill="black"></path><path fill-rule="evenodd" clip-rule="evenodd" d="M333.912 65.4997C333.912 65.4997 337.631 67.6804 341.544 65.7243C341.544 65.7243 342.148 65.3695 342.148 65.9467C342.148 66.5261 340.497 67.5187 337.934 67.5502C335.371 67.5838 333.525 66.717 333.141 65.9467C332.755 65.1763 333.912 65.4997 333.912 65.4997Z" fill="black"></path><path fill-rule="evenodd" clip-rule="evenodd" d="M329.311 45.8006C329.311 45.8006 335.465 43.3617 336.208 43.6806C336.949 43.9973 335.573 45.2706 335.573 45.2706C335.573 45.2706 337.057 45.5895 335.889 46.4384C334.724 47.2874 335.997 47.4985 335.676 47.6063C335.359 47.7118 329.311 45.8006 329.311 45.8006Z" fill="black"></path><path fill-rule="evenodd" clip-rule="evenodd" d="M297.051 73.3888C297.051 73.3888 289.943 64.7942 285.592 60.0196C281.241 55.2451 277.315 45.1659 279.437 36.8902C281.56 28.6145 283.788 27.3411 285.062 24.5833C286.335 21.8232 288.456 16.4131 296.308 13.3363C304.163 10.2596 305.542 9.51625 307.77 8.13509C309.998 6.75617 311.166 4.9528 315.092 5.16615C319.018 5.37725 315.517 2.30053 323.261 4.4228C331.008 6.54506 339.02 6.33396 339.418 18.5084C339.418 18.5084 342.124 13.3363 337.587 7.28618C337.587 7.28618 339.817 6.72922 341.089 10.3113C342.362 13.8933 342.443 23.9185 336.313 24.1566C330.186 24.3969 326.206 21.5312 324.456 21.3718C322.704 21.2146 315.303 23.2021 314.668 24.2374C314.03 25.2705 312.04 28.7739 313.154 31.3206C314.27 33.8651 313.554 35.8549 312.199 39.1966C310.847 42.5406 312.199 51.8494 312.678 52.8847C313.154 53.9178 311.166 54.4747 310.13 51.3711C309.095 48.2674 304.401 42.8573 300.183 44.609C295.964 46.3585 298.909 57.6593 302.57 60.0466C302.57 60.0466 301.615 71.2665 297.051 73.3888Z" fill="#110B05"></path><path fill-rule="evenodd" clip-rule="evenodd" d="M328.513 8.34814C329.582 8.91633 330.487 9.74503 331.273 10.6815C332.063 11.618 332.661 12.7364 333.013 13.9469C333.37 15.1551 333.366 16.4869 333.013 17.6861C332.712 18.9123 331.978 19.9499 331.165 20.8145C331.594 19.6871 332.072 18.6361 332.167 17.511C332.29 16.4105 332.266 15.3011 331.933 14.2433C331.338 12.1098 330.031 10.1852 328.513 8.34814Z" fill="#703312"></path><path fill-rule="evenodd" clip-rule="evenodd" d="M334.777 11.6382C335.093 12.4624 335.23 13.327 335.309 14.1939C335.403 15.0608 335.349 15.9411 335.23 16.8147C335.087 17.6816 334.869 18.562 334.415 19.357C333.989 20.143 333.375 20.8931 332.549 21.2389C333.072 20.5293 333.387 19.7904 333.62 19.0201C333.843 18.2475 334.013 17.457 334.121 16.6441C334.391 15.0226 334.498 13.3674 334.777 11.6382Z" fill="#703312"></path><path fill-rule="evenodd" clip-rule="evenodd" d="M320.187 5.802C321.496 6.32078 322.659 7.16969 323.674 8.1758C324.696 9.17743 325.5 10.4283 326.003 11.8028C326.499 13.1749 326.666 14.6953 326.369 16.1169C326.284 16.8378 326.007 17.5071 325.781 18.1786C325.491 18.8253 325.116 19.4317 324.75 20.0201C325.098 18.6592 325.498 17.3588 325.511 16.0226C325.588 14.7043 325.408 13.395 324.947 12.1801C324.078 9.70968 322.284 7.62334 320.187 5.802Z" fill="#703312"></path><path fill-rule="evenodd" clip-rule="evenodd" d="M319.546 7.39478C321.634 8.35373 323.287 10.2043 324.255 12.322C324.718 13.3933 325.071 14.5297 325.136 15.6952C325.257 16.8518 325.138 18.0151 324.85 19.1178C324.671 17.9837 324.572 16.89 324.282 15.8345C324.031 14.7789 323.678 13.7616 323.233 12.7869C322.367 10.8151 321.095 9.05217 319.546 7.39478Z" fill="#703312"></path><path fill-rule="evenodd" clip-rule="evenodd" d="M308.14 9.51489C309.679 9.53735 311.192 9.90341 312.648 10.4424C314.108 10.9791 315.478 11.7966 316.668 12.8499C317.845 13.9211 318.751 15.318 319.216 16.8339C319.752 18.3453 319.651 19.9646 319.389 21.4513C319.186 19.9331 319.061 18.4442 318.405 17.1349C317.798 15.8323 316.992 14.6308 315.907 13.6763C313.762 11.736 311.022 10.4851 308.14 9.51489Z" fill="#703312"></path><path fill-rule="evenodd" clip-rule="evenodd" d="M304.108 12.169C305.517 11.8343 306.983 11.8231 308.43 11.9691C309.883 12.1128 311.314 12.5193 312.664 13.1212C314.011 13.7253 315.24 14.6259 316.228 15.7218C317.264 16.7863 317.924 18.1383 318.38 19.4903C317.504 18.3427 316.707 17.1973 315.622 16.3372C314.571 15.4658 313.452 14.6775 312.192 14.1408C309.708 12.9887 306.961 12.434 304.108 12.169Z" fill="#703312"></path><path fill-rule="evenodd" clip-rule="evenodd" d="M289.838 18.9061C291.561 18.7376 293.292 18.8342 295.008 19.0273C296.729 19.2205 298.434 19.5821 300.098 20.0896C301.749 20.6353 303.377 21.2956 304.869 22.2186C306.347 23.1551 307.71 24.2937 308.725 25.6951C307.371 24.6194 305.954 23.7233 304.451 22.9754C302.93 22.268 301.367 21.6661 299.763 21.1608C296.547 20.157 293.229 19.499 289.838 18.9061Z" fill="#703312"></path><path fill-rule="evenodd" clip-rule="evenodd" d="M292.277 16.8359C294.006 16.4766 295.787 16.4474 297.555 16.5709C299.327 16.6922 301.084 17.0695 302.782 17.6377C304.471 18.2418 306.079 19.1087 307.476 20.2361C308.889 21.3567 309.992 22.812 310.794 24.3683C309.601 23.068 308.402 21.8486 306.962 20.93C305.524 20.0272 304.019 19.2457 302.409 18.6955C299.192 17.5793 295.776 17.056 292.277 16.8359Z" fill="#703312"></path><path fill-rule="evenodd" clip-rule="evenodd" d="M305.699 35.5107C306.373 37.4736 306.761 39.4544 307.141 41.4374C307.487 43.4294 307.776 45.3945 308.032 47.4449C307.464 46.569 307.1 45.5921 306.775 44.6197C306.44 43.6428 306.229 42.6389 306.036 41.635C305.697 39.6205 305.506 37.5791 305.699 35.5107Z" fill="#703312"></path><path fill-rule="evenodd" clip-rule="evenodd" d="M287.978 39.5413C290.062 43.175 291.956 46.8715 293.937 50.5187C295.902 54.1793 297.87 57.8063 300.181 61.294C298.653 59.8477 297.387 58.1521 296.196 56.4296C294.992 54.7071 293.952 52.8835 292.948 51.0487C290.99 47.3521 289.262 43.5298 287.978 39.5413Z" fill="#703312"></path><path fill-rule="evenodd" clip-rule="evenodd" d="M284.156 40.7083C285.91 45.0718 287.938 49.2692 290.283 53.2892C291.438 55.3059 292.687 57.2687 294.001 59.1911C295.292 61.1382 296.748 62.9573 298.163 64.846C294.632 61.7244 291.678 57.9402 289.311 53.8506C288.129 51.798 287.071 49.6757 286.211 47.4748C285.34 45.2807 284.585 43.0304 284.156 40.7083Z" fill="#703312"></path><path fill-rule="evenodd" clip-rule="evenodd" d="M180.803 166.28C180.803 166.28 194.174 207.975 200.223 219.754C206.271 231.531 202.451 234.395 202.132 236.942C201.813 239.488 202.132 240.126 201.496 241.876C200.858 243.625 199.427 252.166 199.214 253.441C199.003 254.715 197.835 262.036 197.835 263.094C197.835 264.156 199.533 264.05 200.169 263.837C200.807 263.626 201.867 260.338 202.291 258.216C202.716 256.091 204.733 251.53 204.733 251.53C204.733 251.53 203.778 266.492 203.778 267.552C203.778 268.612 206.112 269.144 206.536 268.717C206.961 268.295 210.568 251.53 210.568 251.53V262.245C210.568 263.626 211.523 270.204 211.631 270.736C211.734 271.266 214.07 271.794 214.919 270.415C214.919 270.415 215.449 263.415 215.557 260.866C215.662 258.319 216.406 253.545 216.406 253.545C216.406 253.545 217.466 260.549 217.785 262.036C218.102 263.52 220.332 269.779 220.756 269.993C221.181 270.204 223.515 269.887 223.726 269.249C223.939 268.612 222.666 259.806 222.56 258.216C222.452 256.624 221.711 242.83 221.711 242.83C221.711 242.83 226.167 249.091 227.546 249.091C228.926 249.091 230.837 248.983 231.367 248.348C231.897 247.712 232.111 246.542 231.473 246.12C230.837 245.693 226.697 237.42 225.743 234.024C224.788 230.629 220.543 225.537 216.192 223.202C216.192 223.202 213.751 212.485 213.54 202.83C213.326 193.176 207.491 160.71 207.491 160.71C207.491 160.71 250.574 145.643 261.822 140.337C273.071 135.032 284.106 128.667 287.926 122.514C291.747 116.358 284.955 86.2264 274.131 89.6198C263.307 93.0177 253.44 96.9434 245.587 105.006C237.735 113.07 185.205 143.519 183.72 145.643C182.236 147.766 178.096 157.42 180.803 166.28Z" fill="#DB8C5C"></path><path fill-rule="evenodd" clip-rule="evenodd" d="M328.675 98.1099C328.675 98.1099 337.165 102.566 340.137 115.721C343.106 128.877 363.056 163.678 363.056 163.678C363.056 163.678 372.607 159.86 381.733 158.162C390.859 156.465 399.135 149.249 401.471 144.369C403.805 139.489 402.107 135.457 406.988 132.273C411.871 129.091 413.356 122.299 415.903 123.148C418.45 123.997 415.478 129.939 415.478 129.939C415.478 129.939 422.268 126.757 425.664 123.362C429.06 119.966 432.456 116.359 433.73 117.208C435.004 118.057 433.512 123.878 429.75 126.173C429.75 126.173 437.708 120.999 438.903 121.875C440.612 123.13 439.062 125.297 438.584 125.695C438.108 126.092 435.48 128.877 435.48 128.877C435.48 128.877 438.665 126.971 440.176 127.606C441.688 128.242 441.052 132.619 436.675 135.563C436.675 135.563 438.108 134.687 439.222 135.722C440.336 136.755 436.675 141.211 429.114 146.305C421.554 151.4 417.414 155.297 409.932 158.081C402.453 160.866 381.441 192.539 360.909 198.03C360.909 198.03 345.229 192.22 335.281 171.134C325.333 150.046 321.036 101.717 328.675 98.1099Z" fill="#DB8C5C"></path><path fill-rule="evenodd" clip-rule="evenodd" d="M415.475 129.939C414.455 131.152 413.559 132.439 412.937 133.822C412.299 135.21 412.113 136.64 412.043 138.221C411.927 139.773 411.884 141.393 411.433 142.976C411.04 144.559 410.072 146.091 408.657 146.861C409.768 145.709 410.379 144.294 410.588 142.789C410.817 141.289 410.833 139.735 410.925 138.147C411.006 136.593 411.28 134.828 412.174 133.427C413.014 132.014 414.141 130.817 415.475 129.939Z" fill="black"></path><path fill-rule="evenodd" clip-rule="evenodd" d="M422.109 131.663C423.423 132.7 424.397 134.052 425.165 135.512C425.522 136.257 425.859 137.021 426.035 137.843C426.216 138.656 426.322 139.507 426.167 140.336C425.563 138.791 424.889 137.43 424.166 136.017C423.468 134.605 422.717 133.214 422.109 131.663Z" fill="black"></path><path fill-rule="evenodd" clip-rule="evenodd" d="M429.749 126.173C428.968 127.074 428.045 127.813 427.131 128.565C426.183 129.264 425.24 129.978 424.196 130.501C425.002 129.578 425.909 128.848 426.812 128.105C427.751 127.415 428.678 126.712 429.749 126.173Z" fill="black"></path><path fill-rule="evenodd" clip-rule="evenodd" d="M435.48 128.877C434.375 130.198 433.09 131.33 431.778 132.428C430.421 133.457 429.042 134.537 427.403 135.11C428.121 134.642 428.777 134.106 429.444 133.585L431.425 131.99C432.769 130.95 434.065 129.854 435.48 128.877Z" fill="black"></path><path fill-rule="evenodd" clip-rule="evenodd" d="M436.673 135.562C435.466 136.925 434.076 138.091 432.654 139.218C431.188 140.253 429.696 141.399 427.899 141.839C428.715 141.437 429.436 140.907 430.163 140.384C430.884 139.854 431.614 139.333 432.317 138.771C433.764 137.707 435.163 136.577 436.673 135.562Z" fill="black"></path><path fill-rule="evenodd" clip-rule="evenodd" d="M291.746 82.4067C291.746 82.4067 306.602 101.505 316.79 100.443C326.976 99.3827 319.708 95.1381 320.343 92.6453L321.3 91.3719C321.3 91.3719 331.646 92.3781 335.891 101.611C340.134 110.841 348.73 130.574 348.73 130.574C348.73 130.574 346.077 136.092 341.091 143.627C341.091 143.627 343.53 165.802 329.523 188.931C315.516 212.061 311.06 239.435 311.06 239.435C311.06 239.435 291.746 226.068 267.553 228.615C243.358 231.159 235.292 239.648 242.084 224.157C248.877 208.667 249.512 195.298 248.239 183.625C246.965 171.955 249.301 148.188 249.301 148.188L246.33 149.25C246.33 149.25 232.321 120.603 232.321 112.752C232.321 112.752 238.477 109.356 242.509 104.901C246.541 100.443 265.642 89.4091 277.315 87.2868C288.988 85.1668 286.652 82.6201 291.746 82.4067Z" fill="#2C7A71"></path><path fill-rule="evenodd" clip-rule="evenodd" d="M249.302 148.188C251.252 146.719 253.233 145.32 255.241 143.982L258.24 141.965C259.244 141.316 260.169 140.591 261.36 139.964C263.669 138.83 266.085 138.264 268.509 137.882C270.933 137.514 273.392 137.345 275.831 137.577C273.435 137.999 271.094 138.596 268.774 139.169C266.478 139.793 264.154 140.431 262.123 141.464C261.153 141.929 260.151 142.686 259.096 143.306C258.042 143.926 256.998 144.543 255.917 145.102C253.779 146.259 251.571 147.285 249.302 148.188Z" fill="#23625A"></path><path fill-rule="evenodd" clip-rule="evenodd" d="M264.157 215.667C267.674 214.27 271.421 213.621 275.194 213.453C278.925 213.35 282.932 213.704 286.229 215.667C284.372 215.297 282.55 215.189 280.731 215.097C278.911 215.025 277.083 215.068 275.255 215.135C271.589 215.247 267.928 215.571 264.157 215.667Z" fill="#23625A"></path><path fill-rule="evenodd" clip-rule="evenodd" d="M256.094 224.157C259.272 222.738 262.654 221.828 266.08 221.166C269.507 220.496 273.013 220.231 276.52 220.263C280.026 220.299 283.536 220.824 286.919 221.743C290.317 222.639 293.518 224.175 296.418 226.068C294.756 225.516 293.249 224.682 291.562 224.298C290.74 224.056 289.942 223.753 289.114 223.548L286.616 223C283.269 222.407 279.896 221.945 276.488 221.947C273.085 221.873 269.676 222.086 266.271 222.439C262.87 222.827 259.478 223.402 256.094 224.157Z" fill="#23625A"></path><path fill-rule="evenodd" clip-rule="evenodd" d="M332.922 109.569C334.676 111.979 336.06 114.64 337.263 117.369C338.49 120.093 339.404 122.95 340.15 125.844C340.873 128.748 341.369 131.715 341.52 134.704C341.749 137.689 341.551 140.694 341.093 143.627C340.916 142.138 340.972 140.669 340.743 139.202C340.635 137.738 340.478 136.285 340.231 134.839C339.786 131.948 339.258 129.078 338.517 126.253C337.829 123.414 336.98 120.616 336.06 117.834C335.123 115.051 334.065 112.311 332.922 109.569Z" fill="#23625A"></path></svg>